<svg id="export-svg" width="100%" xmlns="http://www.w3.org/2000/svg" viewBox="0 0 2192 1492" style="max-width: 2192px; background: rgb(255, 255, 255);" role="graphics-document document" aria-roledescription="gantt"><style xmlns="http://www.w3.org/1999/xhtml">p {margin: 0;}</style><style>#export-svg{font-family:arial,sans-serif;font-size:14px;fill:#333;}@keyframes edge-animation-frame{from{stroke-dashoffset:0;}}@keyframes dash{to{stroke-dashoffset:0;}}#export-svg .edge-animation-slow{stroke-dasharray:9,5!important;stroke-dashoffset:900;animation:dash 50s linear infinite;stroke-linecap:round;}#export-svg .edge-animation-fast{stroke-dasharray:9,5!important;stroke-dashoffset:900;animation:dash 20s linear infinite;stroke-linecap:round;}#export-svg .error-icon{fill:#ffffff;}#export-svg .error-text{fill:#000000;stroke:#000000;}#export-svg .edge-thickness-normal{stroke-width:2px;}#export-svg .edge-thickness-thick{stroke-width:3.5px;}#export-svg .edge-pattern-solid{stroke-dasharray:0;}#export-svg .edge-thickness-invisible{stroke-width:0;fill:none;}#export-svg .edge-pattern-dashed{stroke-dasharray:3;}#export-svg .edge-pattern-dotted{stroke-dasharray:2;}#export-svg .marker{fill:#000000;stroke:#000000;}#export-svg .marker.cross{stroke:#000000;}#export-svg svg{font-family:arial,sans-serif;font-size:14px;}#export-svg p{margin:0;}#export-svg .mermaid-main-font{font-family:arial,sans-serif;}#export-svg .exclude-range{fill:#eeeeee;}#export-svg .section{stroke:none;opacity:0.2;}#export-svg .section0{fill:hsl(60, 90%, 100%);}#export-svg .section2{fill:#ECECFE;}#export-svg .section1,#export-svg .section3{fill:white;opacity:0.2;}#export-svg .sectionTitle0{fill:#000000;}#export-svg .sectionTitle1{fill:#000000;}#export-svg .sectionTitle2{fill:#000000;}#export-svg .sectionTitle3{fill:#000000;}#export-svg .sectionTitle{text-anchor:start;font-family:arial,sans-serif;}#export-svg .grid .tick{stroke:lightgrey;opacity:0.8;shape-rendering:crispEdges;}#export-svg .grid .tick text{font-family:arial,sans-serif;fill:#333;}#export-svg .grid path{stroke-width:0;}#export-svg .today{fill:none;stroke:red;stroke-width:2px;}#export-svg .task{stroke-width:2;}#export-svg .taskText{text-anchor:middle;font-family:arial,sans-serif;}#export-svg .taskTextOutsideRight{fill:#333;text-anchor:start;font-family:arial,sans-serif;}#export-svg .taskTextOutsideLeft{fill:#333;text-anchor:end;}#export-svg .task.clickable{cursor:pointer;}#export-svg .taskText.clickable{cursor:pointer;fill:#003163!important;font-weight:bold;}#export-svg .taskTextOutsideLeft.clickable{cursor:pointer;fill:#003163!important;font-weight:bold;}#export-svg .taskTextOutsideRight.clickable{cursor:pointer;fill:#003163!important;font-weight:bold;}#export-svg .taskText0,#export-svg .taskText1,#export-svg .taskText2,#export-svg .taskText3{fill:#333;}#export-svg .task0,#export-svg .task1,#export-svg .task2,#export-svg .task3{fill:#ECECFE;stroke:hsl(0, 0%, 70%);}#export-svg .taskTextOutside0,#export-svg .taskTextOutside2{fill:#333;}#export-svg .taskTextOutside1,#export-svg .taskTextOutside3{fill:#333;}#export-svg .active0,#export-svg .active1,#export-svg .active2,#export-svg .active3{fill:hsl(240, 90%, 100%);stroke:#ECECFE;}#export-svg .activeText0,#export-svg .activeText1,#export-svg .activeText2,#export-svg .activeText3{fill:#333!important;}#export-svg .done0,#export-svg .done1,#export-svg .done2,#export-svg .done3{stroke:grey;fill:lightgrey;stroke-width:2;}#export-svg .doneText0,#export-svg .doneText1,#export-svg .doneText2,#export-svg .doneText3{fill:#333!important;}#export-svg .crit0,#export-svg .crit1,#export-svg .crit2,#export-svg .crit3{stroke:#ff8888;fill:red;stroke-width:2;}#export-svg .activeCrit0,#export-svg .activeCrit1,#export-svg .activeCrit2,#export-svg .activeCrit3{stroke:#ff8888;fill:hsl(240, 90%, 100%);stroke-width:2;}#export-svg .doneCrit0,#export-svg .doneCrit1,#export-svg .doneCrit2,#export-svg .doneCrit3{stroke:#ff8888;fill:lightgrey;stroke-width:2;cursor:pointer;shape-rendering:crispEdges;}#export-svg .milestone{transform:rotate(45deg) scale(0.8,0.8);}#export-svg .milestoneText{font-style:italic;}#export-svg .doneCritText0,#export-svg .doneCritText1,#export-svg .doneCritText2,#export-svg .doneCritText3{fill:#333!important;}#export-svg .vert{stroke:undefined;}#export-svg .vertText{font-size:15px;text-anchor:middle;fill:undefined!important;}#export-svg .activeCritText0,#export-svg .activeCritText1,#export-svg .activeCritText2,#export-svg .activeCritText3{fill:#333!important;}#export-svg .titleText{text-anchor:middle;font-size:18px;fill:#000000;font-family:arial,sans-serif;}#export-svg .node .neo-node{stroke:#000000;}#export-svg [data-look="neo"].node rect,#export-svg [data-look="neo"].cluster rect,#export-svg [data-look="neo"].node polygon{stroke:url(#export-svg-gradient);filter:drop-shadow( 0px 1px 2px rgba(0, 0, 0, 0.25));}#export-svg [data-look="neo"].node path{stroke:url(#export-svg-gradient);stroke-width:2;}#export-svg [data-look="neo"].node .outer-path{filter:drop-shadow( 0px 1px 2px rgba(0, 0, 0, 0.25));}#export-svg [data-look="neo"].node .neo-line path{stroke:#000000;filter:none;}#export-svg [data-look="neo"].node circle{stroke:url(#export-svg-gradient);filter:drop-shadow( 0px 1px 2px rgba(0, 0, 0, 0.25));}#export-svg [data-look="neo"].node circle .state-start{fill:#000000;}#export-svg [data-look="neo"].statediagram-cluster rect{fill:#ffffff;stroke:url(#export-svg-gradient);stroke-width:2;}#export-svg [data-look="neo"].icon-shape .icon{fill:url(#export-svg-gradient);filter:drop-shadow( 0px 1px 2px rgba(0, 0, 0, 0.25));}#export-svg [data-look="neo"].icon-shape .icon-neo path{stroke:url(#export-svg-gradient);filter:drop-shadow( 0px 1px 2px rgba(0, 0, 0, 0.25));}#export-svg :root{--mermaid-font-family:"trebuchet ms",verdana,arial,sans-serif;}</style><g/><g class="grid" transform="translate(75, 1442)" fill="none" font-size="10" font-family="sans-serif" text-anchor="middle"><path class="domain" stroke="currentColor" d="M0,-1407V0H2042V-1407"/><g class="tick" opacity="1" transform="translate(0,0)"><line stroke="currentColor" y2="-1407"/><text fill="#000" y="3" dy="1em" stroke="none" font-size="10" style="text-anchor: middle;">Jan 2023</text></g><g class="tick" opacity="1" transform="translate(163,0)"><line stroke="currentColor" y2="-1407"/><text fill="#000" y="3" dy="1em" stroke="none" font-size="10" style="text-anchor: middle;">Apr 2023</text></g><g class="tick" opacity="1" transform="translate(328,0)"><line stroke="currentColor" y2="-1407"/><text fill="#000" y="3" dy="1em" stroke="none" font-size="10" style="text-anchor: middle;">Jul 2023</text></g><g class="tick" opacity="1" transform="translate(495,0)"><line stroke="currentColor" y2="-1407"/><text fill="#000" y="3" dy="1em" stroke="none" font-size="10" style="text-anchor: middle;">Oct 2023</text></g><g class="tick" opacity="1" transform="translate(662,0)"><line stroke="currentColor" y2="-1407"/><text fill="#000" y="3" dy="1em" stroke="none" font-size="10" style="text-anchor: middle;">Jan 2024</text></g><g class="tick" opacity="1" transform="translate(827,0)"><line stroke="currentColor" y2="-1407"/><text fill="#000" y="3" dy="1em" stroke="none" font-size="10" style="text-anchor: middle;">Apr 2024</text></g><g class="tick" opacity="1" transform="translate(992,0)"><line stroke="currentColor" y2="-1407"/><text fill="#000" y="3" dy="1em" stroke="none" font-size="10" style="text-anchor: middle;">Jul 2024</text></g><g class="tick" opacity="1" transform="translate(1159,0)"><line stroke="currentColor" y2="-1407"/><text fill="#000" y="3" dy="1em" stroke="none" font-size="10" style="text-anchor: middle;">Oct 2024</text></g><g class="tick" opacity="1" transform="translate(1326,0)"><line stroke="currentColor" y2="-1407"/><text fill="#000" y="3" dy="1em" stroke="none" font-size="10" style="text-anchor: middle;">Jan 2025</text></g><g class="tick" opacity="1" transform="translate(1489,0)"><line stroke="currentColor" y2="-1407"/><text fill="#000" y="3" dy="1em" stroke="none" font-size="10" style="text-anchor: middle;">Apr 2025</text></g><g class="tick" opacity="1" transform="translate(1654,0)"><line stroke="currentColor" y2="-1407"/><text fill="#000" y="3" dy="1em" stroke="none" font-size="10" style="text-anchor: middle;">Jul 2025</text></g><g class="tick" opacity="1" transform="translate(1821,0)"><line stroke="currentColor" y2="-1407"/><text fill="#000" y="3" dy="1em" stroke="none" font-size="10" style="text-anchor: middle;">Oct 2025</text></g><g class="tick" opacity="1" transform="translate(1988,0)"><line stroke="currentColor" y2="-1407"/><text fill="#000" y="3" dy="1em" stroke="none" font-size="10" style="text-anchor: middle;">Jan 2026</text></g></g><g><rect x="0" y="48" width="2154.5" height="24" class="section section0"/><rect x="0" y="72" width="2154.5" height="24" class="section section0"/><rect x="0" y="168" width="2154.5" height="24" class="section section1"/><rect x="0" y="264" width="2154.5" height="24" class="section section2"/><rect x="0" y="312" width="2154.5" height="24" class="section section3"/><rect x="0" y="1104" width="2154.5" height="24" class="section section2"/><rect x="0" y="96" width="2154.5" height="24" class="section section0"/><rect x="0" y="1224" width="2154.5" height="24" class="section section3"/><rect x="0" y="1248" width="2154.5" height="24" class="section section3"/><rect x="0" y="1272" width="2154.5" height="24" class="section section3"/><rect x="0" y="192" width="2154.5" height="24" class="section section1"/><rect x="0" y="336" width="2154.5" height="24" class="section section3"/><rect x="0" y="360" width="2154.5" height="24" class="section section3"/><rect x="0" y="1296" width="2154.5" height="24" class="section section3"/><rect x="0" y="216" width="2154.5" height="24" class="section section1"/><rect x="0" y="1128" width="2154.5" height="24" class="section section2"/><rect x="0" y="648" width="2154.5" height="24" class="section section0"/><rect x="0" y="672" width="2154.5" height="24" class="section section0"/><rect x="0" y="120" width="2154.5" height="24" class="section section0"/><rect x="0" y="384" width="2154.5" height="24" class="section section3"/><rect x="0" y="408" width="2154.5" height="24" class="section section3"/><rect x="0" y="432" width="2154.5" height="24" class="section section3"/><rect x="0" y="240" width="2154.5" height="24" class="section section1"/><rect x="0" y="288" width="2154.5" height="24" class="section section2"/><rect x="0" y="696" width="2154.5" height="24" class="section section0"/><rect x="0" y="720" width="2154.5" height="24" class="section section0"/><rect x="0" y="744" width="2154.5" height="24" class="section section0"/><rect x="0" y="768" width="2154.5" height="24" class="section section0"/><rect x="0" y="1032" width="2154.5" height="24" class="section section1"/><rect x="0" y="1320" width="2154.5" height="24" class="section section3"/><rect x="0" y="1344" width="2154.5" height="24" class="section section3"/><rect x="0" y="1368" width="2154.5" height="24" class="section section3"/><rect x="0" y="792" width="2154.5" height="24" class="section section0"/><rect x="0" y="816" width="2154.5" height="24" class="section section0"/><rect x="0" y="840" width="2154.5" height="24" class="section section0"/><rect x="0" y="864" width="2154.5" height="24" class="section section0"/><rect x="0" y="888" width="2154.5" height="24" class="section section0"/><rect x="0" y="912" width="2154.5" height="24" class="section section0"/><rect x="0" y="936" width="2154.5" height="24" class="section section0"/><rect x="0" y="960" width="2154.5" height="24" class="section section0"/><rect x="0" y="144" width="2154.5" height="24" class="section section0"/><rect x="0" y="1176" width="2154.5" height="24" class="section section2"/><rect x="0" y="456" width="2154.5" height="24" class="section section3"/><rect x="0" y="480" width="2154.5" height="24" class="section section3"/><rect x="0" y="504" width="2154.5" height="24" class="section section3"/><rect x="0" y="528" width="2154.5" height="24" class="section section3"/><rect x="0" y="552" width="2154.5" height="24" class="section section3"/><rect x="0" y="576" width="2154.5" height="24" class="section section3"/><rect x="0" y="984" width="2154.5" height="24" class="section section0"/><rect x="0" y="1200" width="2154.5" height="24" class="section section2"/><rect x="0" y="1008" width="2154.5" height="24" class="section section0"/><rect x="0" y="1152" width="2154.5" height="24" class="section section2"/><rect x="0" y="600" width="2154.5" height="24" class="section section3"/><rect x="0" y="624" width="2154.5" height="24" class="section section3"/><rect x="0" y="1056" width="2154.5" height="24" class="section section1"/><rect x="0" y="1080" width="2154.5" height="24" class="section section1"/><rect x="0" y="1392" width="2154.5" height="24" class="section section3"/><rect x="0" y="1416" width="2154.5" height="24" class="section section3"/></g><g><rect id="foxbox_ios" rx="3" ry="3" x="75" y="50" width="549" height="20" transform-origin="349.5px 60px" class="task task0"/><rect id="chris1" rx="3" ry="3" x="75" y="74" width="549" height="20" transform-origin="349.5px 84px" class="task task0"/><rect id="thoughtbot_android" rx="3" ry="3" x="75" y="170" width="716" height="20" transform-origin="433px 180px" class="task task1"/><rect id="thoughtbot_web" rx="3" ry="3" x="75" y="266" width="1213" height="20" transform-origin="681.5px 276px" class="task task2"/><rect id="addresses" rx="3" ry="3" x="75" y="314" width="549" height="20" transform-origin="349.5px 324px" class="task task3"/><rect id="basecamp" rx="3" ry="3" x="75" y="1106" width="825" height="20" transform-origin="487.5px 1116px" class="task task2"/><rect id="jarod" rx="3" ry="3" x="570" y="98" width="551" height="20" transform-origin="845.5px 108px" class="task task0"/><rect id="first_all_hands" rx="3" ry="3" x="560" y="1226" width="20" height="20" transform-origin="570px 1236px" class="task milestone  task3"/><rect id="issa2023" rx="3" ry="3" x="616" y="1250" width="20" height="20" transform-origin="626px 1260px" class="task milestone  task3"/><rect id="kelly_joins" rx="3" ry="3" x="727" y="1274" width="20" height="20" transform-origin="737px 1284px" class="task milestone  task3"/><rect id="niraj" rx="3" ry="3" x="793" y="194" width="107" height="20" transform-origin="846.5px 204px" class="task task1"/><rect id="xcode" rx="3" ry="3" x="793" y="338" width="107" height="20" transform-origin="846.5px 348px" class="task task3"/><rect id="bug_fixes" rx="3" ry="3" x="793" y="362" width="107" height="20" transform-origin="846.5px 372px" class="task task3"/><rect id="android_pilot" rx="3" ry="3" x="783" y="1298" width="20" height="20" transform-origin="793px 1308px" class="task milestone  task3"/><rect id="abhi" rx="3" ry="3" x="846" y="218" width="54" height="20" transform-origin="873px 228px" class="task task1"/><rect id="github" rx="3" ry="3" x="846" y="1130" width="993" height="20" transform-origin="1342.5px 1140px" class="task task2"/><rect id="web_qr_codes" rx="3" ry="3" x="956" y="650" width="109" height="20" transform-origin="1010.5px 660px" class="task task0"/><rect id="rails7_upgrade" rx="3" ry="3" x="1013" y="674" width="108" height="20" transform-origin="1067px 684px" class="task task0"/><rect id="bryan" rx="3" ry="3" x="1067" y="122" width="388" height="20" transform-origin="1261px 132px" class="task task0"/><rect id="checklists_v1" rx="3" ry="3" x="1123" y="386" width="220" height="20" transform-origin="1233px 396px" class="task task3"/><rect id="visit_tracking" rx="3" ry="3" x="1123" y="410" width="220" height="20" transform-origin="1233px 420px" class="task task3"/><rect id="qr_codes" rx="3" ry="3" x="1123" y="434" width="220" height="20" transform-origin="1233px 444px" class="task task3"/><rect id="shanitha" rx="3" ry="3" x="1179" y="242" width="938" height="20" transform-origin="1648px 252px" class="task task1"/><rect id="stepwyz" rx="3" ry="3" x="1179" y="290" width="938" height="20" transform-origin="1648px 300px" class="task task2"/><rect id="web_visit_tracking" rx="3" ry="3" x="1179" y="698" width="164" height="20" transform-origin="1261px 708px" class="task task0"/><rect id="web_checklists" rx="3" ry="3" x="1179" y="722" width="164" height="20" transform-origin="1261px 732px" class="task task0"/><rect id="api_docs" rx="3" ry="3" x="1179" y="746" width="164" height="20" transform-origin="1261px 756px" class="task task0"/><rect id="area_tree" rx="3" ry="3" x="1179" y="770" width="164" height="20" transform-origin="1261px 780px" class="task task0"/><rect id="android_app_inspections_webviews" rx="3" ry="3" x="1179" y="1034" width="715" height="20" transform-origin="1536.5px 1044px" class="task task1"/><rect id="visit_tracking_web" rx="3" ry="3" x="1169" y="1322" width="20" height="20" transform-origin="1179px 1332px" class="task milestone  task3"/><rect id="android_inspections_demoable" rx="3" ry="3" x="1280" y="1346" width="20" height="20" transform-origin="1290px 1356px" class="task milestone  task3"/><rect id="issa2024" rx="3" ry="3" x="1280" y="1370" width="20" height="20" transform-origin="1290px 1380px" class="task milestone  task3"/><rect id="web_inspection_schedules" rx="3" ry="3" x="1401" y="794" width="272" height="20" transform-origin="1537px 804px" class="task task0"/><rect id="web_web_checklists" rx="3" ry="3" x="1401" y="818" width="272" height="20" transform-origin="1537px 828px" class="task task0"/><rect id="web_finalization" rx="3" ry="3" x="1401" y="842" width="272" height="20" transform-origin="1537px 852px" class="task task0"/><rect id="web_rm_optimistic_locking" rx="3" ry="3" x="1401" y="866" width="272" height="20" transform-origin="1537px 876px" class="task task0"/><rect id="web_device_pinning" rx="3" ry="3" x="1401" y="890" width="272" height="20" transform-origin="1537px 900px" class="task task0"/><rect id="web_android_support" rx="3" ry="3" x="1401" y="914" width="272" height="20" transform-origin="1537px 924px" class="task task0"/><rect id="web_bulk_assign" rx="3" ry="3" x="1401" y="938" width="272" height="20" transform-origin="1537px 948px" class="task task0"/><rect id="web_visit_duration" rx="3" ry="3" x="1401" y="962" width="272" height="20" transform-origin="1537px 972px" class="task task0"/><rect id="chris2" rx="3" ry="3" x="1457" y="146" width="660" height="20" transform-origin="1787px 156px" class="task task0"/><rect id="product_bible" rx="3" ry="3" x="1457" y="1178" width="105" height="20" transform-origin="1509.5px 1188px" class="task task2"/><rect id="modernization" rx="3" ry="3" x="1508" y="458" width="331" height="20" transform-origin="1673.5px 468px" class="task task3"/><rect id="fast_sign_in" rx="3" ry="3" x="1508" y="482" width="331" height="20" transform-origin="1673.5px 492px" class="task task3"/><rect id="beta_flags" rx="3" ry="3" x="1508" y="506" width="331" height="20" transform-origin="1673.5px 516px" class="task task3"/><rect id="schedule_tab_swiftui" rx="3" ry="3" x="1508" y="530" width="331" height="20" transform-origin="1673.5px 540px" class="task task3"/><rect id="inspection_tab_swiftui" rx="3" ry="3" x="1508" y="554" width="331" height="20" transform-origin="1673.5px 564px" class="task task3"/><rect id="new_camera" rx="3" ry="3" x="1508" y="578" width="331" height="20" transform-origin="1673.5px 588px" class="task task3"/><rect id="web_wcag" rx="3" ry="3" x="1618" y="986" width="165" height="20" transform-origin="1700.5px 996px" class="task task0"/><rect id="matt_kelly_sessions" rx="3" ry="3" x="1729" y="1202" width="276" height="20" transform-origin="1867px 1212px" class="task task2"/><rect id="web_checklists_visits" rx="3" ry="3" x="1785" y="1010" width="220" height="20" transform-origin="1895px 1020px" class="task task0"/><rect id="linear" rx="3" ry="3" x="1785" y="1154" width="332" height="20" transform-origin="1951px 1164px" class="task task2"/><rect id="visits_checklists_tweaks" rx="3" ry="3" x="1841" y="602" width="164" height="20" transform-origin="1923px 612px" class="task task3"/><rect id="uploads_tab" rx="3" ry="3" x="1841" y="626" width="164" height="20" transform-origin="1923px 636px" class="task task3"/><rect id="android_visit_tracking" rx="3" ry="3" x="1841" y="1058" width="164" height="20" transform-origin="1923px 1068px" class="task task1"/><rect id="android_checklists" rx="3" ry="3" x="1896" y="1082" width="109" height="20" transform-origin="1950.5px 1092px" class="task task1"/><rect id="ios15_last" rx="3" ry="3" x="1886" y="1394" width="20" height="20" transform-origin="1896px 1404px" class="task milestone  task3"/><rect id="issa2025" rx="3" ry="3" x="1942" y="1418" width="20" height="20" transform-origin="1952px 1428px" class="task milestone  task3"/><text id="foxbox_ios-text" font-size="11" x="349.5" y="63.5" class="taskText taskText0  width-140">Foxbox (iOS) - Hugo, Kelsey </text><text id="chris1-text" font-size="11" x="349.5" y="87.5" class="taskText taskText0  width-119.828125">Thoughtbot (iOS) - Chris </text><text id="thoughtbot_android-text" font-size="11" x="433" y="183.5" class="taskText taskText1  width-103.953125">Thoughtbot (Android) </text><text id="thoughtbot_web-text" font-size="11" x="681.5" y="279.5" class="taskText taskText2  width-88.65625">Thoughtbot (Web)  </text><text id="addresses-text" font-size="11" x="349.5" y="327.5" class="taskText taskText3  width-51.984375">Addresses                 </text><text id="basecamp-text" font-size="11" x="487.5" y="1119.5" class="taskText taskText2  width-51.984375">Basecamp          </text><text id="jarod-text" font-size="11" x="845.5" y="111.5" class="taskText taskText0  width-27.53125">Jarod             </text><text id="first_all_hands-text" font-size="11" x="585" y="1239.5" class="taskTextOutsideRight taskTextOutside3  milestoneText width-69.078125">First all-hands   </text><text id="issa2023-text" font-size="11" x="641" y="1263.5" class="taskTextOutsideRight taskTextOutside3  milestoneText width-52.59375">ISSA 2023         </text><text id="kelly_joins-text" font-size="11" x="752" y="1287.5" class="taskTextOutsideRight taskTextOutside3  milestoneText width-77.046875">Kelly joins team  </text><text id="niraj-text" font-size="11" x="846.5" y="207.5" class="taskText taskText1  width-22.625">Niraj             </text><text id="xcode-text" font-size="11" x="846.5" y="351.5" class="taskText taskText3  width-31.203125">Xcode                     </text><text id="bug_fixes-text" font-size="11" x="846.5" y="375.5" class="taskText taskText3  width-45.25">Bug fixes                 </text><text id="android_pilot-text" font-size="11" x="808" y="1311.5" class="taskTextOutsideRight taskTextOutside3  milestoneText width-62.375">Android Pilot     </text><text id="abhi-text" font-size="11" x="873" y="231.5" class="taskText taskText1  width-22.03125">Abhi              </text><text id="github-text" font-size="11" x="1342.5" y="1143.5" class="taskText taskText2  width-32.421875">Github            </text><text id="web_qr_codes-text" font-size="11" x="1010.5" y="663.5" class="taskText taskText0  width-51.359375">QR Codes                  </text><text id="rails7_upgrade-text" font-size="11" x="1067" y="687.5" class="taskText taskText0  width-77.0625">Rails 7 upgrade           </text><text id="bryan-text" font-size="11" x="1261" y="135.5" class="taskText taskText0  width-28.75">Bryan             </text><text id="checklists_v1-text" font-size="11" x="1233" y="399.5" class="taskText taskText3  width-64.796875">Checklists v1             </text><text id="visit_tracking-text" font-size="11" x="1233" y="423.5" class="taskText taskText3  width-66.03125">Visit Tracking            </text><text id="qr_codes-text" font-size="11" x="1233" y="447.5" class="taskText taskText3  width-48.921875">QR codes                  </text><text id="shanitha-text" font-size="11" x="1648" y="255.5" class="taskText taskText1  width-43.4375">Shanitha          </text><text id="stepwyz-text" font-size="11" x="1648" y="303.5" class="taskText taskText2  width-41.578125">Stepwyz           </text><text id="web_visit_tracking-text" font-size="11" x="1261" y="711.5" class="taskText taskText0  width-66.03125">Visit Tracking            </text><text id="web_checklists-text" font-size="11" x="1261" y="735.5" class="taskText taskText0  width-50.125">Checklists                </text><text id="api_docs-text" font-size="11" x="1261" y="759.5" class="taskText taskText0  width-44.03125">API docs                  </text><text id="area_tree-text" font-size="11" x="1261" y="783.5" class="taskText taskText0  width-45.25">Area tree                 </text><text id="android_app_inspections_webviews-text" font-size="11" x="1536.5" y="1047.5" class="taskText taskText1  width-198.734375">Android app, inspections, and web views </text><text id="visit_tracking_web-text" font-size="11" x="1194" y="1335.5" class="taskTextOutsideRight taskTextOutside3  milestoneText width-100.890625">Visit tracking on web </text><text id="android_inspections_demoable-text" font-size="11" x="1305" y="1359.5" class="taskTextOutsideRight taskTextOutside3  milestoneText width-147.375">Android inspections demoable </text><text id="issa2024-text" font-size="11" x="1305" y="1383.5" class="taskTextOutsideRight taskTextOutside3  milestoneText width-52.59375">ISSA 2024         </text><text id="web_inspection_schedules-text" font-size="11" x="1537" y="807.5" class="taskText taskText0  width-102.734375">Inspection schedules      </text><text id="web_web_checklists-text" font-size="11" x="1537" y="831.5" class="taskText taskText0  width-73.359375">Web checklists            </text><text id="web_finalization-text" font-size="11" x="1537" y="855.5" class="taskText taskText0  width-55.640625">Finalization              </text><text id="web_rm_optimistic_locking-text" font-size="11" x="1537" y="879.5" class="taskText taskText0  width-99.03125">rm optimistic locking     </text><text id="web_device_pinning-text" font-size="11" x="1537" y="903.5" class="taskText taskText0  width-72.15625">Device pinning            </text><text id="web_android_support-text" font-size="11" x="1537" y="927.5" class="taskText taskText0  width-77.671875">Android support           </text><text id="web_bulk_assign-text" font-size="11" x="1537" y="951.5" class="taskText taskText0  width-56.265625">Bulk assign               </text><text id="web_visit_duration-text" font-size="11" x="1537" y="975.5" class="taskText taskText0  width-63.59375">Visit duration            </text><text id="chris2-text" font-size="11" x="1787" y="159.5" class="taskText taskText0  width-77.625">Chris (Full time) </text><text id="product_bible-text" font-size="11" x="1509.5" y="1191.5" class="taskText taskText2  width-65.4375">Product Bible     </text><text id="modernization-text" font-size="11" x="1673.5" y="471.5" class="taskText taskText3  width-69.09375">Modernization             </text><text id="fast_sign_in-text" font-size="11" x="1673.5" y="495.5" class="taskText taskText3  width-56.25">Fast sign in              </text><text id="beta_flags-text" font-size="11" x="1673.5" y="519.5" class="taskText taskText3  width-48.921875">Beta flags                </text><text id="schedule_tab_swiftui-text" font-size="11" x="1673.5" y="543.5" class="taskText taskText3  width-102.125">Schedule tab SwiftUI      </text><text id="inspection_tab_swiftui-text" font-size="11" x="1673.5" y="567.5" class="taskText taskText3  width-106.390625">Inspection tab SwiftUI    </text><text id="new_camera-text" font-size="11" x="1673.5" y="591.5" class="taskText taskText3  width-61.75">New camera                </text><text id="web_wcag-text" font-size="11" x="1700.5" y="999.5" class="taskText taskText0  width-34.234375">WCAG                      </text><text id="matt_kelly_sessions-text" font-size="11" x="1867" y="1215.5" class="taskText taskText2  width-94.15625">Matt/Kelly sessions </text><text id="web_checklists_visits-text" font-size="11" x="1895" y="1023.5" class="taskText taskText0  width-99.046875">Checklists and visits     </text><text id="linear-text" font-size="11" x="1951" y="1167.5" class="taskText taskText2  width-30.578125">Linear            </text><text id="visits_checklists_tweaks-text" font-size="11" x="1923" y="615.5" class="taskText taskText3  width-138.171875">Visits and Checklists tweaks </text><text id="uploads_tab-text" font-size="11" x="1923" y="639.5" class="taskText taskText3  width-58.71875">Uploads tab               </text><text id="android_visit_tracking-text" font-size="11" x="1923" y="1071.5" class="taskText taskText1  width-66.03125">Visit Tracking            </text><text id="android_checklists-text" font-size="11" x="1950.5" y="1095.5" class="taskText taskText1  width-50.125">Checklists                </text><text id="ios15_last-text" font-size="11" x="1911" y="1407.5" class="taskTextOutsideRight taskTextOutside3  milestoneText width-96.625">Last iOS 15 release </text><text id="issa2025-text" font-size="11" x="1967" y="1431.5" class="taskTextOutsideRight taskTextOutside3  milestoneText width-52.59375">ISSA 2025         </text></g><g><text dy="0em" x="10" y="110" font-size="11" class="sectionTitle sectionTitle0"><tspan alignment-baseline="central" x="10">Hiring (iOS)</tspan></text><text dy="0em" x="10" y="218" font-size="11" class="sectionTitle sectionTitle1"><tspan alignment-baseline="central" x="10">Hiring (Android)</tspan></text><text dy="0em" x="10" y="290" font-size="11" class="sectionTitle sectionTitle2"><tspan alignment-baseline="central" x="10">Hiring (Web)</tspan></text><text dy="0em" x="10" y="482" font-size="11" class="sectionTitle sectionTitle3"><tspan alignment-baseline="central" x="10">Projects (iOS)</tspan></text><text dy="0em" x="10" y="842" font-size="11" class="sectionTitle sectionTitle0"><tspan alignment-baseline="central" x="10">Projects (Web)</tspan></text><text dy="0em" x="10" y="1070" font-size="11" class="sectionTitle sectionTitle1"><tspan alignment-baseline="central" x="10">Projects (Android)</tspan></text><text dy="0em" x="10" y="1166" font-size="11" class="sectionTitle sectionTitle2"><tspan alignment-baseline="central" x="10">PM / PJM</tspan></text><text dy="0em" x="10" y="1334" font-size="11" class="sectionTitle sectionTitle3"><tspan alignment-baseline="central" x="10">Milestones</tspan></text></g><g class="today"><line x1="1959" x2="1959" y1="25" y2="1467" class="today"/></g><text x="1096" y="25" class="titleText">The last 3 years</text></svg>